# xmcd
#
# Track frame offsets: 
#        150
#        12283
#        28251
#        40628
#        57028
#        69126
#        84897
#        97054
#        112573
#        126934
#
# Disc length: 1921 seconds
#
# Revision: 0
# Processed by: cddbd v1.5.2PL0 Copyright (c) Steve Scherf et al.
# Submitted via: ExactAudioCopy v0.99pb4
#
DISCID=6d077f0a
DTITLE=Allen Mayes - Night Like This
DYEAR=2008
DGENRE=Country
TTITLE0=Night Like This
TTITLE1=If The Moon Could Talk
TTITLE2=Lovin And A Leavin
TTITLE3=She's Starting Over
TTITLE4=Mama Wants To Dance
TTITLE5=Time Sure Flies
TTITLE6=Give Me A Break
TTITLE7=Built On Love
TTITLE8=Country Boy's Rock-N-Roll
TTITLE9=Ashes To Ashes
EXTD=
EXTT0=
EXTT1=
EXTT2=
EXTT3=
EXTT4=
EXTT5=
EXTT6=
EXTT7=
EXTT8=
EXTT9=
PLAYORDER=
